<svg xmlns="http://www.w3.org/2000/svg" viewBox="0 0 260 64" role="img" aria-labelledby="title desc">
  <title id="title">MG Design</title>
  <desc id="desc">MG Design horizontal brand lockup.</desc>
  <g transform="translate(0 0)">
    <path d="M3 50V14H10L18 27L26 14H33V50H25V29L18 40L11 29V50H3Z" fill="#101A2B"/>
    <path d="M47 13C52.9 13 57.7 15.2 61 19.3L55 24.2C53.1 21.8 50.5 20.5 47.2 20.5C40.9 20.5 36.5 25.2 36.5 32C36.5 38.8 40.9 43.5 47.2 43.5C49.8 43.5 52 42.8 53.8 41.4V37H46V30H62V45C58.1 48.9 53.1 51 47 51C36.3 51 28.5 43.1 28.5 32C28.5 20.9 36.3 13 47 13Z" fill="#327CFF"/>
  </g>
  <text x="76" y="50" fill="#101A2B" font-family="'Segoe UI Light', 'Helvetica Neue', Arial, sans-serif" font-size="48" font-weight="300" letter-spacing=".7">DESIGN</text>
</svg>
